<?xml version="1.0" standalone="no"?>
<!DOCTYPE svg PUBLIC "-//W3C//DTD SVG 20010904//EN"
 "http://www.w3.org/TR/2001/REC-SVG-20010904/DTD/svg10.dtd">
<svg version="1.0" xmlns="http://www.w3.org/2000/svg"
 width="65.000000pt" height="59.000000pt" viewBox="0 0 65.000000 59.000000"
 preserveAspectRatio="xMidYMid meet">

<g transform="translate(0.000000,59.000000) scale(0.100000,-0.100000)"
fill="currentColor" stroke="none">
<path d="M275 521 c-179 -45 -246 -260 -122 -389 90 -95 225 -102 325 -17 104
87 104 263 0 350 -57 48 -141 71 -203 56z m-26 -115 c7 -8 11 -27 9 -43 -2
-23 -8 -29 -35 -31 -27 -3 -35 1 -45 22 -9 22 -8 29 7 46 21 24 48 26 64 6z
m105 -2 c34 -34 9 -78 -41 -72 -22 2 -29 9 -31 31 -6 50 38 75 72 41z m97 6
c27 -15 26 -66 -2 -80 -16 -9 -26 -8 -45 5 -28 18 -31 41 -7 67 19 21 27 22
54 8z m-91 -115 c19 -22 4 -64 -25 -71 -15 -4 -32 -1 -40 6 -18 15 -20 66 -2
73 24 10 55 7 67 -8z m-5 -101 c34 -35 1 -83 -48 -70 -21 5 -27 12 -27 34 0
49 42 69 75 36z"/>
</g>
</svg>